<?xml version="1.0"?>
<!-- Generated by SVGo -->
<svg width="136.302mm" height="117.252mm"
     viewBox="0.000 0.000 136.302 117.252"
     xmlns="http://www.w3.org/2000/svg" 
     xmlns:xlink="http://www.w3.org/1999/xlink">
<polygon points="63.150,5.000 63.150,10.001 10.001,10.001 10.001,107.252 126.301,107.252 126.301,10.001 73.150,10.001 73.150,5.001 129.301,5.001 129.458,5.007 129.614,5.025 129.768,5.056 129.920,5.098 130.067,5.153 130.209,5.218 130.346,5.295 130.477,5.382 130.599,5.480 130.716,5.586 130.822,5.702 130.920,5.825 131.007,5.956 131.084,6.093 131.149,6.235 131.204,6.382 131.246,6.534 131.277,6.688 131.295,6.844 131.302,7.001 131.302,110.252 131.295,110.408 131.277,110.564 131.246,110.718 131.204,110.870 131.149,111.017 131.084,111.159 131.007,111.296 130.920,111.427 130.822,111.550 130.716,111.666 130.599,111.772 130.477,111.870 130.346,111.957 130.209,112.034 130.067,112.099 129.920,112.154 129.768,112.196 129.614,112.227 129.458,112.245 129.301,112.251 7.001,112.252 6.844,112.245 6.688,112.227 6.534,112.196 6.382,112.154 6.235,112.099 6.093,112.034 5.956,111.957 5.825,111.870 5.702,111.772 5.586,111.666 5.480,111.550 5.382,111.427 5.295,111.296 5.218,111.159 5.153,111.017 5.098,110.870 5.056,110.718 5.025,110.564 5.007,110.408 5.000,110.252 5.001,7.001 5.007,6.844 5.025,6.688 5.056,6.534 5.098,6.382 5.153,6.235 5.218,6.093 5.295,5.956 5.382,5.825 5.480,5.702 5.586,5.586 5.702,5.480 5.825,5.382 5.956,5.295 6.093,5.218 6.235,5.153 6.382,5.098 6.534,5.056 6.688,5.025 6.844,5.007 7.001,5.000" style="fill:none;stroke-width:0.050000mm;stroke:blue"/>
<polygon points="128.477,108.753 128.184,108.902 127.952,109.134 127.803,109.427 127.751,109.752 127.803,110.076 127.952,110.369 128.184,110.601 128.477,110.750 128.801,110.802 129.126,110.750 129.419,110.601 129.651,110.369 129.800,110.076 129.852,109.752 129.800,109.427 129.651,109.134 129.419,108.902 129.126,108.753 128.801,108.702" style="fill:none;stroke-width:0.050000mm;stroke:blue"/>
<polygon points="67.827,108.753 67.534,108.902 67.302,109.134 67.152,109.427 67.101,109.752 67.152,110.076 67.302,110.369 67.534,110.601 67.827,110.750 68.151,110.802 68.475,110.750 68.768,110.601 69.000,110.369 69.150,110.076 69.201,109.752 69.150,109.427 69.000,109.134 68.768,108.902 68.475,108.753 68.151,108.702" style="fill:none;stroke-width:0.050000mm;stroke:blue"/>
<polygon points="7.176,108.753 6.883,108.902 6.651,109.134 6.502,109.427 6.450,109.752 6.502,110.076 6.651,110.369 6.883,110.601 7.176,110.750 7.501,110.802 7.825,110.750 8.118,110.601 8.350,110.369 8.499,110.076 8.551,109.752 8.499,109.427 8.350,109.134 8.118,108.902 7.825,108.753 7.501,108.702" style="fill:none;stroke-width:0.050000mm;stroke:blue"/>
<polygon points="128.477,57.627 128.184,57.777 127.952,58.009 127.803,58.302 127.751,58.626 127.803,58.950 127.952,59.243 128.184,59.475 128.477,59.625 128.801,59.676 129.126,59.625 129.419,59.475 129.651,59.243 129.800,58.950 129.852,58.626 129.800,58.302 129.651,58.009 129.419,57.777 129.126,57.627 128.801,57.576" style="fill:none;stroke-width:0.050000mm;stroke:blue"/>
<polygon points="7.176,57.627 6.883,57.777 6.651,58.009 6.502,58.302 6.450,58.626 6.502,58.950 6.651,59.243 6.883,59.475 7.176,59.625 7.501,59.676 7.825,59.625 8.118,59.475 8.350,59.243 8.499,58.950 8.551,58.626 8.499,58.302 8.350,58.009 8.118,57.777 7.825,57.627 7.501,57.576" style="fill:none;stroke-width:0.050000mm;stroke:blue"/>
<polygon points="128.477,6.502 128.184,6.651 127.952,6.883 127.803,7.176 127.751,7.501 127.803,7.825 127.952,8.118 128.184,8.350 128.477,8.499 128.801,8.551 129.126,8.499 129.419,8.350 129.651,8.118 129.800,7.825 129.852,7.501 129.800,7.176 129.651,6.883 129.419,6.651 129.126,6.502 128.801,6.451" style="fill:none;stroke-width:0.050000mm;stroke:blue"/>
<polygon points="7.176,6.502 6.883,6.651 6.651,6.883 6.502,7.176 6.450,7.501 6.502,7.825 6.651,8.118 6.883,8.350 7.176,8.499 7.501,8.551 7.825,8.499 8.118,8.350 8.350,8.118 8.499,7.825 8.551,7.501 8.499,7.176 8.350,6.883 8.118,6.651 7.825,6.502 7.501,6.451" style="fill:none;stroke-width:0.050000mm;stroke:blue"/>
</svg>
