<?xml version="1.0"?>
<!-- Generated by SVGo -->
<svg width="136.302mm" height="117.252mm"
     viewBox="0.000 0.000 136.302 117.252"
     xmlns="http://www.w3.org/2000/svg" 
     xmlns:xlink="http://www.w3.org/1999/xlink">
<polygon points="129.301,5.001 129.458,5.007 129.614,5.025 129.768,5.056 129.920,5.098 130.067,5.153 130.209,5.218 130.346,5.295 130.477,5.382 130.599,5.480 130.716,5.586 130.822,5.702 130.920,5.825 131.007,5.956 131.084,6.093 131.149,6.235 131.204,6.382 131.246,6.534 131.277,6.688 131.295,6.844 131.302,7.001 131.302,110.252 131.295,110.408 131.277,110.564 131.246,110.718 131.204,110.870 131.149,111.017 131.084,111.159 131.007,111.296 130.920,111.427 130.822,111.550 130.716,111.666 130.599,111.772 130.477,111.870 130.346,111.957 130.209,112.034 130.067,112.099 129.920,112.154 129.768,112.196 129.614,112.227 129.458,112.245 129.301,112.251 7.001,112.252 6.844,112.245 6.688,112.227 6.534,112.196 6.382,112.154 6.235,112.099 6.093,112.034 5.956,111.957 5.825,111.870 5.702,111.772 5.586,111.666 5.480,111.550 5.382,111.427 5.295,111.296 5.218,111.159 5.153,111.017 5.098,110.870 5.056,110.718 5.025,110.564 5.007,110.408 5.000,110.252 5.001,7.001 5.007,6.844 5.025,6.688 5.056,6.534 5.098,6.382 5.153,6.235 5.218,6.093 5.295,5.956 5.382,5.825 5.480,5.702 5.586,5.586 5.702,5.480 5.825,5.382 5.956,5.295 6.093,5.218 6.235,5.153 6.382,5.098 6.534,5.056 6.688,5.025 6.844,5.007 7.001,5.000" style="fill:none;stroke-width:0.050000mm;stroke:blue"/>
<polygon points="128.477,108.753 128.184,108.902 127.952,109.134 127.803,109.427 127.751,109.752 127.803,110.076 127.952,110.369 128.184,110.601 128.477,110.750 128.801,110.802 129.126,110.750 129.419,110.601 129.651,110.369 129.800,110.076 129.852,109.752 129.800,109.427 129.651,109.134 129.419,108.902 129.126,108.753 128.801,108.702" style="fill:none;stroke-width:0.050000mm;stroke:blue"/>
<polygon points="67.827,108.753 67.534,108.902 67.302,109.134 67.152,109.427 67.101,109.752 67.152,110.076 67.302,110.369 67.534,110.601 67.827,110.750 68.151,110.802 68.475,110.750 68.768,110.601 69.000,110.369 69.150,110.076 69.201,109.752 69.150,109.427 69.000,109.134 68.768,108.902 68.475,108.753 68.151,108.702" style="fill:none;stroke-width:0.050000mm;stroke:blue"/>
<polygon points="7.176,108.753 6.883,108.902 6.651,109.134 6.502,109.427 6.450,109.752 6.502,110.076 6.651,110.369 6.883,110.601 7.176,110.750 7.501,110.802 7.825,110.750 8.118,110.601 8.350,110.369 8.499,110.076 8.551,109.752 8.499,109.427 8.350,109.134 8.118,108.902 7.825,108.753 7.501,108.702" style="fill:none;stroke-width:0.050000mm;stroke:blue"/>
<polygon points="32.576,89.726 32.576,90.726 31.776,90.726 31.776,93.825 32.576,93.825 32.576,99.626 31.776,99.626 31.776,102.726 32.576,102.726 32.576,103.726 46.576,103.726 46.576,102.726 47.376,102.726 47.376,99.626 46.576,99.626 46.576,93.825 47.376,93.825 47.376,90.726 46.576,90.726 46.576,89.726" style="fill:none;stroke-width:0.050000mm;stroke:blue"/>
<polygon points="51.626,89.726 51.626,90.726 50.826,90.726 50.826,93.825 51.626,93.825 51.626,99.626 50.826,99.626 50.826,102.726 51.626,102.726 51.626,103.726 65.626,103.726 65.626,102.726 66.426,102.726 66.426,99.626 65.626,99.626 65.626,93.825 66.426,93.825 66.426,90.726 65.626,90.726 65.626,89.726" style="fill:none;stroke-width:0.050000mm;stroke:blue"/>
<polygon points="70.676,89.726 70.676,90.726 69.876,90.726 69.876,93.825 70.676,93.825 70.676,99.626 69.876,99.626 69.876,102.726 70.676,102.726 70.676,103.726 84.676,103.726 84.676,102.726 85.476,102.726 85.476,99.626 84.676,99.626 84.676,93.825 85.476,93.825 85.476,90.726 84.676,90.726 84.676,89.726" style="fill:none;stroke-width:0.050000mm;stroke:blue"/>
<polygon points="89.726,89.726 89.726,90.726 88.926,90.726 88.926,93.825 89.726,93.825 89.726,99.626 88.926,99.626 88.926,102.726 89.726,102.726 89.726,103.726 103.726,103.726 103.726,102.726 104.525,102.726 104.525,99.626 103.726,99.626 103.726,93.825 104.525,93.825 104.525,90.726 103.726,90.726 103.726,89.726" style="fill:none;stroke-width:0.050000mm;stroke:blue"/>
<polygon points="20.026,71.101 20.026,71.926 13.755,71.926 13.755,73.651 12.775,73.651 12.775,76.951 13.755,76.951 13.755,78.676 18.225,78.676 18.225,80.201 17.626,80.201 17.626,79.401 14.525,79.401 14.525,80.201 13.525,80.201 13.525,94.201 14.525,94.201 14.525,95.001 17.626,95.001 17.626,94.201 18.225,94.201 18.225,95.726 13.755,95.726 13.755,97.451 12.775,97.451 12.775,100.751 13.755,100.751 13.755,102.476 20.026,102.476 20.026,103.301 22.826,103.301 22.826,102.476 26.056,102.476 26.056,100.751 26.976,100.751 26.976,97.451 26.056,97.451 26.056,95.726 22.826,95.726 22.826,94.201 23.425,94.201 23.425,95.001 26.526,95.001 26.526,94.201 27.526,94.201 27.526,80.201 26.526,80.201 26.526,79.401 23.425,79.401 23.425,80.201 22.826,80.201 22.826,78.676 26.056,78.676 26.056,76.951 26.975,76.951 26.975,73.651 26.056,73.651 26.056,71.926 22.825,71.926 22.825,71.101" style="fill:none;stroke-width:0.050000mm;stroke:blue"/>
<polygon points="32.576,70.676 32.576,71.676 31.776,71.676 31.776,74.775 32.576,74.775 32.576,80.576 31.776,80.576 31.776,83.676 32.576,83.676 32.576,84.676 46.576,84.676 46.576,83.676 47.376,83.676 47.376,80.576 46.576,80.576 46.576,74.775 47.376,74.775 47.376,71.676 46.576,71.676 46.576,70.676" style="fill:none;stroke-width:0.050000mm;stroke:blue"/>
<polygon points="51.626,70.676 51.626,71.676 50.826,71.676 50.826,74.775 51.626,74.775 51.626,80.576 50.826,80.576 50.826,83.676 51.626,83.676 51.626,84.676 65.626,84.676 65.626,83.676 66.426,83.676 66.426,80.576 65.626,80.576 65.626,74.775 66.426,74.775 66.426,71.676 65.626,71.676 65.626,70.676" style="fill:none;stroke-width:0.050000mm;stroke:blue"/>
<polygon points="70.676,70.676 70.676,71.676 69.876,71.676 69.876,74.775 70.676,74.775 70.676,80.576 69.876,80.576 69.876,83.676 70.676,83.676 70.676,84.676 84.676,84.676 84.676,83.676 85.476,83.676 85.476,80.576 84.676,80.576 84.676,74.775 85.476,74.775 85.476,71.676 84.676,71.676 84.676,70.676" style="fill:none;stroke-width:0.050000mm;stroke:blue"/>
<polygon points="89.726,70.676 89.726,71.676 88.926,71.676 88.926,74.775 89.726,74.775 89.726,80.576 88.926,80.576 88.926,83.676 89.726,83.676 89.726,84.676 103.726,84.676 103.726,83.676 104.525,83.676 104.525,80.576 103.726,80.576 103.726,74.775 104.525,74.775 104.525,71.676 103.726,71.676 103.726,70.676" style="fill:none;stroke-width:0.050000mm;stroke:blue"/>
<polygon points="108.775,70.676 108.775,71.676 107.976,71.676 107.976,74.775 108.775,74.775 108.775,80.576 107.976,80.576 107.976,83.676 108.775,83.676 108.775,84.676 122.775,84.676 122.775,83.676 123.575,83.676 123.575,80.576 122.775,80.576 122.775,74.775 123.575,74.775 123.575,71.676 122.775,71.676 122.775,70.676" style="fill:none;stroke-width:0.050000mm;stroke:blue"/>
<polygon points="13.525,51.626 13.525,52.626 12.725,52.626 12.725,55.726 13.525,55.726 13.525,61.526 12.725,61.526 12.725,64.626 13.525,64.626 13.525,65.626 27.526,65.626 27.526,64.626 28.326,64.626 28.326,61.526 27.526,61.526 27.526,55.726 28.326,55.726 28.326,52.626 27.526,52.626 27.526,51.626" style="fill:none;stroke-width:0.050000mm;stroke:blue"/>
<polygon points="32.576,51.626 32.576,52.626 31.776,52.626 31.776,55.726 32.576,55.726 32.576,61.526 31.776,61.526 31.776,64.626 32.576,64.626 32.576,65.626 46.576,65.626 46.576,64.626 47.376,64.626 47.376,61.526 46.576,61.526 46.576,55.726 47.376,55.726 47.376,52.626 46.576,52.626 46.576,51.626" style="fill:none;stroke-width:0.050000mm;stroke:blue"/>
<polygon points="51.626,51.626 51.626,52.626 50.826,52.626 50.826,55.726 51.626,55.726 51.626,61.526 50.826,61.526 50.826,64.626 51.626,64.626 51.626,65.626 65.626,65.626 65.626,64.626 66.426,64.626 66.426,61.526 65.626,61.526 65.626,55.726 66.426,55.726 66.426,52.626 65.626,52.626 65.626,51.626" style="fill:none;stroke-width:0.050000mm;stroke:blue"/>
<polygon points="70.676,51.626 70.676,52.626 69.876,52.626 69.876,55.726 70.676,55.726 70.676,61.526 69.876,61.526 69.876,64.626 70.676,64.626 70.676,65.626 84.676,65.626 84.676,64.626 85.476,64.626 85.476,61.526 84.676,61.526 84.676,55.726 85.476,55.726 85.476,52.626 84.676,52.626 84.676,51.626" style="fill:none;stroke-width:0.050000mm;stroke:blue"/>
<polygon points="89.726,51.626 89.726,52.626 88.926,52.626 88.926,55.726 89.726,55.726 89.726,61.526 88.926,61.526 88.926,64.626 89.726,64.626 89.726,65.626 103.726,65.626 103.726,64.626 104.525,64.626 104.525,61.526 103.726,61.526 103.726,55.726 104.525,55.726 104.525,52.626 103.726,52.626 103.726,51.626" style="fill:none;stroke-width:0.050000mm;stroke:blue"/>
<polygon points="108.775,51.626 108.775,52.626 107.976,52.626 107.976,55.726 108.775,55.726 108.775,61.526 107.976,61.526 107.976,64.626 108.775,64.626 108.775,65.626 122.775,65.626 122.775,64.626 123.575,64.626 123.575,61.526 122.775,61.526 122.775,55.726 123.575,55.726 123.575,52.626 122.775,52.626 122.775,51.626" style="fill:none;stroke-width:0.050000mm;stroke:blue"/>
<polygon points="128.477,57.627 128.184,57.777 127.952,58.009 127.803,58.302 127.751,58.626 127.803,58.950 127.952,59.243 128.184,59.475 128.477,59.625 128.801,59.676 129.126,59.625 129.419,59.475 129.651,59.243 129.800,58.950 129.852,58.626 129.800,58.302 129.651,58.009 129.419,57.777 129.126,57.627 128.801,57.576" style="fill:none;stroke-width:0.050000mm;stroke:blue"/>
<polygon points="7.176,57.627 6.883,57.777 6.651,58.009 6.502,58.302 6.450,58.626 6.502,58.950 6.651,59.243 6.883,59.475 7.176,59.625 7.501,59.676 7.825,59.625 8.118,59.475 8.350,59.243 8.499,58.950 8.551,58.626 8.499,58.302 8.350,58.009 8.118,57.777 7.825,57.627 7.501,57.576" style="fill:none;stroke-width:0.050000mm;stroke:blue"/>
<polygon points="13.525,32.576 13.525,33.576 12.725,33.576 12.725,36.676 13.525,36.676 13.525,42.476 12.725,42.476 12.725,45.576 13.525,45.576 13.525,46.576 27.526,46.576 27.526,45.576 28.326,45.576 28.326,42.476 27.526,42.476 27.526,36.676 28.326,36.676 28.326,33.576 27.526,33.576 27.526,32.576" style="fill:none;stroke-width:0.050000mm;stroke:blue"/>
<polygon points="32.576,32.576 32.576,33.576 31.776,33.576 31.776,36.676 32.576,36.676 32.576,42.476 31.776,42.476 31.776,45.576 32.576,45.576 32.576,46.576 46.576,46.576 46.576,45.576 47.376,45.576 47.376,42.476 46.576,42.476 46.576,36.676 47.376,36.676 47.376,33.576 46.576,33.576 46.576,32.576" style="fill:none;stroke-width:0.050000mm;stroke:blue"/>
<polygon points="51.626,32.576 51.626,33.576 50.826,33.576 50.826,36.676 51.626,36.676 51.626,42.476 50.826,42.476 50.826,45.576 51.626,45.576 51.626,46.576 65.626,46.576 65.626,45.576 66.426,45.576 66.426,42.476 65.626,42.476 65.626,36.676 66.426,36.676 66.426,33.576 65.626,33.576 65.626,32.576" style="fill:none;stroke-width:0.050000mm;stroke:blue"/>
<polygon points="70.676,32.576 70.676,33.576 69.876,33.576 69.876,36.676 70.676,36.676 70.676,42.476 69.876,42.476 69.876,45.576 70.676,45.576 70.676,46.576 84.676,46.576 84.676,45.576 85.476,45.576 85.476,42.476 84.676,42.476 84.676,36.676 85.476,36.676 85.476,33.576 84.676,33.576 84.676,32.576" style="fill:none;stroke-width:0.050000mm;stroke:blue"/>
<polygon points="89.726,32.576 89.726,33.576 88.926,33.576 88.926,36.676 89.726,36.676 89.726,42.476 88.926,42.476 88.926,45.576 89.726,45.576 89.726,46.576 103.726,46.576 103.726,45.576 104.525,45.576 104.525,42.476 103.726,42.476 103.726,36.676 104.525,36.676 104.525,33.576 103.726,33.576 103.726,32.576" style="fill:none;stroke-width:0.050000mm;stroke:blue"/>
<polygon points="108.775,32.576 108.775,33.576 107.976,33.576 107.976,36.676 108.775,36.676 108.775,42.476 107.976,42.476 107.976,45.576 108.775,45.576 108.775,46.576 122.775,46.576 122.775,45.576 123.575,45.576 123.575,42.476 122.775,42.476 122.775,36.676 123.575,36.676 123.575,33.576 122.775,33.576 122.775,32.576" style="fill:none;stroke-width:0.050000mm;stroke:blue"/>
<polygon points="13.525,13.525 13.525,14.525 12.725,14.525 12.725,17.626 13.525,17.626 13.525,23.425 12.725,23.425 12.725,26.526 13.525,26.526 13.525,27.526 27.526,27.526 27.526,26.526 28.326,26.526 28.326,23.425 27.526,23.425 27.526,17.626 28.326,17.626 28.326,14.525 27.526,14.525 27.526,13.525" style="fill:none;stroke-width:0.050000mm;stroke:blue"/>
<polygon points="32.576,13.525 32.576,14.525 31.776,14.525 31.776,17.626 32.576,17.626 32.576,23.425 31.776,23.425 31.776,26.526 32.576,26.526 32.576,27.526 46.576,27.526 46.576,26.526 47.376,26.526 47.376,23.425 46.576,23.425 46.576,17.626 47.376,17.626 47.376,14.525 46.576,14.525 46.576,13.525" style="fill:none;stroke-width:0.050000mm;stroke:blue"/>
<polygon points="51.626,13.525 51.626,14.525 50.826,14.525 50.826,17.626 51.626,17.626 51.626,23.425 50.826,23.425 50.826,26.526 51.626,26.526 51.626,27.526 65.626,27.526 65.626,26.526 66.426,26.526 66.426,23.425 65.626,23.425 65.626,17.626 66.426,17.626 66.426,14.525 65.626,14.525 65.626,13.525" style="fill:none;stroke-width:0.050000mm;stroke:blue"/>
<polygon points="70.676,13.525 70.676,14.525 69.876,14.525 69.876,17.626 70.676,17.626 70.676,23.425 69.876,23.425 69.876,26.526 70.676,26.526 70.676,27.526 84.676,27.526 84.676,26.526 85.476,26.526 85.476,23.425 84.676,23.425 84.676,17.626 85.476,17.626 85.476,14.525 84.676,14.525 84.676,13.525" style="fill:none;stroke-width:0.050000mm;stroke:blue"/>
<polygon points="89.726,13.525 89.726,14.525 88.926,14.525 88.926,17.626 89.726,17.626 89.726,23.425 88.926,23.425 88.926,26.526 89.726,26.526 89.726,27.526 103.726,27.526 103.726,26.526 104.525,26.526 104.525,23.425 103.726,23.425 103.726,17.626 104.525,17.626 104.525,14.525 103.726,14.525 103.726,13.525" style="fill:none;stroke-width:0.050000mm;stroke:blue"/>
<polygon points="108.775,13.525 108.775,14.525 107.976,14.525 107.976,17.626 108.775,17.626 108.775,23.425 107.976,23.425 107.976,26.526 108.775,26.526 108.775,27.526 122.775,27.526 122.775,26.526 123.575,26.526 123.575,23.425 122.775,23.425 122.775,17.626 123.575,17.626 123.575,14.525 122.775,14.525 122.775,13.525" style="fill:none;stroke-width:0.050000mm;stroke:blue"/>
<polygon points="67.827,6.502 67.534,6.651 67.302,6.883 67.152,7.176 67.101,7.501 67.152,7.825 67.302,8.118 67.534,8.350 67.827,8.499 68.151,8.551 68.475,8.499 68.768,8.350 69.000,8.118 69.150,7.825 69.201,7.501 69.150,7.176 69.000,6.883 68.768,6.651 68.475,6.502 68.151,6.451" style="fill:none;stroke-width:0.050000mm;stroke:blue"/>
<polygon points="128.477,6.502 128.184,6.651 127.952,6.883 127.803,7.176 127.751,7.501 127.803,7.825 127.952,8.118 128.184,8.350 128.477,8.499 128.801,8.551 129.126,8.499 129.419,8.350 129.651,8.118 129.800,7.825 129.852,7.501 129.800,7.176 129.651,6.883 129.419,6.651 129.126,6.502 128.801,6.451" style="fill:none;stroke-width:0.050000mm;stroke:blue"/>
<polygon points="7.176,6.502 6.883,6.651 6.651,6.883 6.502,7.176 6.450,7.501 6.502,7.825 6.651,8.118 6.883,8.350 7.176,8.499 7.501,8.551 7.825,8.499 8.118,8.350 8.350,8.118 8.499,7.825 8.551,7.501 8.499,7.176 8.350,6.883 8.118,6.651 7.825,6.502 7.501,6.451" style="fill:none;stroke-width:0.050000mm;stroke:blue"/>
</svg>
